<svg xmlns="http://www.w3.org/2000/svg" viewBox="0 0 326.07 92.44" width="326" height="92" role="img" aria-label="Alturify">
<title>Alturify — AI Automation Agency</title>
<g transform="translate(16,11.22)">
<g transform="translate(0.00,0.00) scale(0.8500)">
    <path d="M 48.89 15.57 A 26.0 26.0 0 1 1 31.11 15.57" fill="none" stroke="#EFEAE3" stroke-width="6.0" stroke-linecap="round"/>
    <path d="M 24.53 23.81 L 31.11 15.57 L 20.77 13.48" fill="none" stroke="#7F9E92" stroke-width="6.0" stroke-linecap="round" stroke-linejoin="round"/>
    <circle cx="48.89" cy="15.57" r="6.0" fill="#7F9E92"/>
  </g>
  <path d="M100.09400000000001 13.100000000000001Q103.474 13.100000000000001 105.99600000000001 14.426Q108.518 15.751999999999999 110.02600000000001 17.728V13.568000000000001H116.006V42.22H110.02600000000001V37.955999999999996Q108.518 39.984 105.918 41.336Q103.31800000000001 42.688 99.99000000000001 42.688Q96.298 42.688 93.23 40.79Q90.162 38.891999999999996 88.36800000000001 35.486Q86.57400000000001 32.08 86.57400000000001 27.764Q86.57400000000001 23.448 88.36800000000001 20.12Q90.162 16.792 93.256 14.946000000000002Q96.35000000000001 13.100000000000001 100.09400000000001 13.100000000000001ZM101.34200000000001 18.248Q99.054 18.248 97.078 19.366Q95.102 20.483999999999998 93.88 22.642Q92.658 24.8 92.658 27.764Q92.658 30.728 93.88 32.964Q95.102 35.2 97.10400000000001 36.370000000000005Q99.10600000000001 37.54 101.34200000000001 37.54Q103.63000000000001 37.54 105.60600000000001 36.396Q107.58200000000001 35.251999999999995 108.804 33.042Q110.02600000000001 30.832 110.02600000000001 27.868000000000002Q110.02600000000001 24.904 108.804 22.72Q107.58200000000001 20.536 105.60600000000001 19.392000000000003Q103.63000000000001 18.248 101.34200000000001 18.248Z M130.774 3.740000000000002V42.22H124.846V3.740000000000002Z M146.53 18.404V34.263999999999996Q146.53 35.876 147.284 36.578Q148.038 37.28 149.858 37.28H153.498V42.22H148.81799999999998Q144.814 42.22 142.68200000000002 40.348Q140.55 38.476 140.55 34.263999999999996V18.404H137.17V13.568000000000001H140.55V6.444000000000003H146.53V13.568000000000001H153.498V18.404Z M185.94600000000003 13.568000000000001V42.22H180.018V38.839999999999996Q178.614 40.608 176.352 41.622Q174.09 42.635999999999996 171.542 42.635999999999996Q168.162 42.635999999999996 165.484 41.232Q162.806 39.827999999999996 161.272 37.072Q159.738 34.316 159.738 30.415999999999997V13.568000000000001H165.614V29.532Q165.614 33.379999999999995 167.538 35.434Q169.46200000000002 37.488 172.79000000000002 37.488Q176.11800000000002 37.488 178.068 35.434Q180.018 33.379999999999995 180.018 29.532V13.568000000000001Z M209.29399999999998 13.100000000000001V19.236H207.786Q204.302 19.236 202.50799999999998 21.003999999999998Q200.714 22.772 200.714 27.14V42.22H194.786V13.568000000000001H200.714V17.728Q202.014 15.544 204.172 14.322000000000001Q206.32999999999998 13.100000000000001 209.29399999999998 13.100000000000001Z M215.014 5.975999999999999Q215.014 4.363999999999997 216.106 3.2719999999999985Q217.198 2.1799999999999997 218.81 2.1799999999999997Q220.37 2.1799999999999997 221.462 3.2719999999999985Q222.554 4.363999999999997 222.554 5.975999999999999Q222.554 7.588000000000001 221.462 8.68Q220.37 9.771999999999998 218.81 9.771999999999998Q217.198 9.771999999999998 216.106 8.68Q215.014 7.588000000000001 215.014 5.975999999999999ZM221.722 13.568000000000001V42.22H215.794V13.568000000000001Z M242.574 18.404H237.27V42.22H231.29000000000002V18.404H227.91V13.568000000000001H231.29000000000002V11.54Q231.29000000000002 6.600000000000001 233.916 4.338000000000001Q236.542 2.0760000000000005 242.15800000000002 2.0760000000000005V7.015999999999998Q239.454 7.015999999999998 238.36200000000002 8.029999999999998Q237.27 9.043999999999997 237.27 11.54V13.568000000000001H242.574Z M274.658 13.568000000000001 257.082 55.688H250.946L256.77 41.751999999999995L245.48600000000002 13.568000000000001H252.09L260.15000000000003 35.408L268.522 13.568000000000001Z" fill="#EFEAE3"/>
  <path d="M91.78450000000001 61.5925H88.5925L88.00450000000001 63.22H86.99650000000001L89.64250000000001 55.9435H90.745L93.38050000000001 63.22H92.3725ZM91.51150000000001 60.8155 90.1885 57.1195 88.86550000000001 60.8155Z M99.901 55.9015V63.22H98.9455V55.9015Z M117.47800000000001 61.5925H114.286L113.69800000000001 63.22H112.69000000000001L115.33600000000001 55.9435H116.4385L119.07400000000001 63.22H118.066ZM117.20500000000001 60.8155 115.882 57.1195 114.55900000000001 60.8155Z M125.57350000000001 55.9015V60.532Q125.57350000000001 61.5085 126.05125000000001 61.980999999999995Q126.52900000000001 62.4535 127.37950000000002 62.4535Q128.2195 62.4535 128.69725 61.980999999999995Q129.175 61.5085 129.175 60.532V55.9015H130.1305V60.521499999999996Q130.1305 61.435 129.76300000000003 62.05975Q129.39550000000003 62.6845 128.77075000000002 62.989000000000004Q128.14600000000002 63.2935 127.36900000000001 63.2935Q126.59200000000001 63.2935 125.96725 62.989000000000004Q125.34250000000002 62.6845 124.98025000000001 62.05975Q124.61800000000001 61.435 124.61800000000001 60.521499999999996V55.9015Z M140.64100000000002 55.9015V56.6785H138.64600000000004V63.22H137.69050000000004V56.6785H135.68500000000003V55.9015Z M145.87000000000003 59.555499999999995Q145.87000000000003 58.4845 146.35825000000003 57.62875Q146.84650000000002 56.772999999999996 147.68650000000002 56.295249999999996Q148.52650000000003 55.817499999999995 149.54500000000002 55.817499999999995Q150.574 55.817499999999995 151.41400000000002 56.295249999999996Q152.25400000000002 56.772999999999996 152.73700000000002 57.62349999999999Q153.22000000000003 58.474 153.22000000000003 59.555499999999995Q153.22000000000003 60.637 152.73700000000002 61.4875Q152.25400000000002 62.338 151.41400000000002 62.81575Q150.574 63.2935 149.54500000000002 63.2935Q148.52650000000003 63.2935 147.68650000000002 62.81575Q146.84650000000002 62.338 146.35825000000003 61.48225Q145.87000000000003 60.6265 145.87000000000003 59.555499999999995ZM152.2435 59.555499999999995Q152.2435 58.6735 151.89175 58.01725Q151.54000000000002 57.361 150.93100000000004 57.004Q150.32200000000003 56.647 149.54500000000002 56.647Q148.76800000000003 56.647 148.15900000000002 57.004Q147.55 57.361 147.19825000000003 58.01725Q146.84650000000002 58.6735 146.84650000000002 59.555499999999995Q146.84650000000002 60.427 147.19825000000003 61.088499999999996Q147.55 61.75 148.16425000000004 62.107Q148.77850000000004 62.464 149.54500000000002 62.464Q150.31150000000002 62.464 150.92575000000002 62.107Q151.54000000000002 61.75 151.89175 61.088499999999996Q152.2435 60.427 152.2435 59.555499999999995Z M166.3135 55.954V63.22H165.358V57.802L162.943 63.22H162.27100000000002L159.84550000000002 57.7915V63.22H158.89000000000001V55.954H159.919L162.607 61.96L165.29500000000002 55.954Z M176.66650000000004 61.5925H173.47450000000003L172.88650000000004 63.22H171.87850000000003L174.52450000000005 55.9435H175.62700000000004L178.26250000000005 63.22H177.25450000000004ZM176.39350000000005 60.8155 175.07050000000004 57.1195 173.74750000000003 60.8155Z M188.33200000000002 55.9015V56.6785H186.33700000000005V63.22H185.38150000000005V56.6785H183.37600000000003V55.9015Z M194.87350000000004 55.9015V63.22H193.91800000000003V55.9015Z M200.55400000000003 59.555499999999995Q200.55400000000003 58.4845 201.04225000000002 57.62875Q201.53050000000002 56.772999999999996 202.37050000000002 56.295249999999996Q203.21050000000002 55.817499999999995 204.229 55.817499999999995Q205.258 55.817499999999995 206.098 56.295249999999996Q206.93800000000002 56.772999999999996 207.42100000000002 57.62349999999999Q207.90400000000002 58.474 207.90400000000002 59.555499999999995Q207.90400000000002 60.637 207.42100000000002 61.4875Q206.93800000000002 62.338 206.098 62.81575Q205.258 63.2935 204.229 63.2935Q203.21050000000002 63.2935 202.37050000000002 62.81575Q201.53050000000002 62.338 201.04225000000002 61.48225Q200.55400000000003 60.6265 200.55400000000003 59.555499999999995ZM206.9275 59.555499999999995Q206.9275 58.6735 206.57575000000003 58.01725Q206.22400000000002 57.361 205.615 57.004Q205.00600000000003 56.647 204.229 56.647Q203.45200000000003 56.647 202.84300000000002 57.004Q202.234 57.361 201.88225 58.01725Q201.53050000000002 58.6735 201.53050000000002 59.555499999999995Q201.53050000000002 60.427 201.88225 61.088499999999996Q202.234 61.75 202.84825 62.107Q203.46250000000003 62.464 204.229 62.464Q204.99550000000002 62.464 205.60975000000002 62.107Q206.22400000000002 61.75 206.57575000000003 61.088499999999996Q206.9275 60.427 206.9275 59.555499999999995Z M219.32800000000003 63.22H218.37250000000003L214.52950000000004 57.3925V63.22H213.57400000000004V55.891H214.52950000000004L218.37250000000003 61.708V55.891H219.32800000000003Z M236.90500000000006 61.5925H233.71300000000005L233.12500000000006 63.22H232.11700000000005L234.76300000000006 55.9435H235.86550000000005L238.50100000000006 63.22H237.49300000000005ZM236.63200000000006 60.8155 235.30900000000005 57.1195 233.98600000000005 60.8155Z M249.61000000000004 58.0225Q249.30550000000005 57.382 248.72800000000007 57.030249999999995Q248.15050000000005 56.6785 247.38400000000004 56.6785Q246.61750000000006 56.6785 246.00325000000004 57.030249999999995Q245.38900000000004 57.382 245.03725000000003 58.03825Q244.68550000000005 58.6945 244.68550000000005 59.555499999999995Q244.68550000000005 60.4165 245.03725000000003 61.067499999999995Q245.38900000000004 61.7185 246.00325000000004 62.07025Q246.61750000000006 62.422 247.38400000000004 62.422Q248.45500000000004 62.422 249.14800000000005 61.781499999999994Q249.84100000000007 61.141 249.95650000000006 60.049H247.03750000000005V59.272H250.97500000000005V60.007Q250.89100000000005 60.91 250.40800000000004 61.66074999999999Q249.92500000000004 62.4115 249.13750000000005 62.84725Q248.35000000000005 63.283 247.38400000000004 63.283Q246.36550000000005 63.283 245.52550000000005 62.80525Q244.68550000000005 62.3275 244.19725000000005 61.477000000000004Q243.70900000000006 60.6265 243.70900000000006 59.555499999999995Q243.70900000000006 58.4845 244.19725000000005 57.62875Q244.68550000000005 56.772999999999996 245.52550000000005 56.295249999999996Q246.36550000000005 55.817499999999995 247.38400000000004 55.817499999999995Q248.54950000000005 55.817499999999995 249.44725000000005 56.394999999999996Q250.34500000000006 56.9725 250.75450000000006 58.0225Z M257.60050000000007 56.6785V59.125H260.26750000000004V59.9125H257.60050000000007V62.4325H260.58250000000004V63.22H256.64500000000004V55.891H260.58250000000004V56.6785Z M272.19550000000004 63.22H271.24000000000007L267.39700000000005 57.3925V63.22H266.4415V55.891H267.39700000000005L271.24000000000007 61.708V55.891H272.19550000000004Z M281.5300000000001 55.807Q282.7270000000001 55.807 283.6195000000001 56.3845Q284.51200000000006 56.961999999999996 284.9215000000001 58.0225H283.7770000000001Q283.4725000000001 57.361 282.9002500000001 57.004Q282.3280000000001 56.647 281.5300000000001 56.647Q280.7635000000001 56.647 280.1545000000001 57.004Q279.54550000000006 57.361 279.19900000000007 58.01725Q278.8525000000001 58.6735 278.8525000000001 59.555499999999995Q278.8525000000001 60.427 279.19900000000007 61.08325Q279.54550000000006 61.7395 280.1545000000001 62.0965Q280.7635000000001 62.4535 281.5300000000001 62.4535Q282.3280000000001 62.4535 282.9002500000001 62.101749999999996Q283.4725000000001 61.75 283.7770000000001 61.088499999999996H284.9215000000001Q284.51200000000006 62.1385 283.6195000000001 62.710750000000004Q282.7270000000001 63.283 281.5300000000001 63.283Q280.51150000000007 63.283 279.6767500000001 62.80525Q278.8420000000001 62.3275 278.3590000000001 61.477000000000004Q277.8760000000001 60.6265 277.8760000000001 59.555499999999995Q277.8760000000001 58.4845 278.3590000000001 57.62875Q278.8420000000001 56.772999999999996 279.6767500000001 56.29Q280.51150000000007 55.807 281.5300000000001 55.807Z M295.87300000000005 55.9015 293.4895 60.4585V63.22H292.53400000000005V60.4585L290.14000000000004 55.9015H291.20050000000003L293.0065 59.608L294.81250000000006 55.9015Z" fill="#B9C6C1"/>
</g>
</svg>
