<svg xmlns="http://www.w3.org/2000/svg" viewBox="0 0 221.48 182.38" width="221" height="182" role="img" aria-label="Alturify">
<title>Alturify — AI Automation Agency</title>
<g transform="translate(16,3.35)">
<g transform="translate(48.74,0.00) scale(1.1500)">
    <path d="M 48.89 15.57 A 26.0 26.0 0 1 1 31.11 15.57" fill="none" stroke="#22282E" stroke-width="6.0" stroke-linecap="round"/>
    <path d="M 24.53 23.81 L 31.11 15.57 L 20.77 13.48" fill="none" stroke="#7F9E92" stroke-width="6.0" stroke-linecap="round" stroke-linejoin="round"/>
    <circle cx="48.89" cy="15.57" r="6.0" fill="#7F9E92"/>
  </g>
  <path d="M27.17675 116.39Q30.036749999999998 116.39 32.17075 117.512Q34.30475 118.634 35.580749999999995 120.306V116.786H40.64075V141.03H35.580749999999995V137.422Q34.30475 139.138 32.104749999999996 140.28199999999998Q29.90475 141.426 27.088749999999997 141.426Q23.964750000000002 141.426 21.368750000000002 139.82Q18.772750000000002 138.214 17.25475 135.332Q15.73675 132.45 15.73675 128.798Q15.73675 125.146 17.25475 122.33000000000001Q18.772750000000002 119.51400000000001 21.39075 117.952Q24.00875 116.39 27.17675 116.39ZM28.23275 120.74600000000001Q26.29675 120.74600000000001 24.62475 121.69200000000001Q22.95275 122.638 21.918750000000003 124.464Q20.88475 126.29 20.88475 128.798Q20.88475 131.306 21.918750000000003 133.198Q22.95275 135.09 24.64675 136.07999999999998Q26.34075 137.07 28.23275 137.07Q30.16875 137.07 31.84075 136.102Q33.51275 135.13400000000001 34.546749999999996 133.264Q35.580749999999995 131.394 35.580749999999995 128.886Q35.580749999999995 126.378 34.546749999999996 124.53Q33.51275 122.682 31.84075 121.714Q30.16875 120.74600000000001 28.23275 120.74600000000001Z M53.13674999999999 108.47V141.03H48.120749999999994V108.47Z M66.46875 120.878V134.298Q66.46875 135.662 67.10675 136.256Q67.74475 136.85 69.28475 136.85H72.36475V141.03H68.40474999999999Q65.01675 141.03 63.21275 139.446Q61.40875 137.862 61.40875 134.298V120.878H58.54875V116.786H61.40875V110.75800000000001H66.46875V116.786H72.36475V120.878Z M99.82075 116.786V141.03H94.80475V138.17Q93.61675 139.666 91.70275000000001 140.524Q89.78875000000001 141.382 87.63275 141.382Q84.77275 141.382 82.50675000000001 140.19400000000002Q80.24075 139.006 78.94275 136.674Q77.64475 134.342 77.64475 131.042V116.786H82.61675V130.294Q82.61675 133.55 84.24475 135.288Q85.87275 137.026 88.68875 137.026Q91.50475 137.026 93.15475 135.288Q94.80475 133.55 94.80475 130.294V116.786Z M119.57674999999999 116.39V121.582H118.30075Q115.35275 121.582 113.83475 123.078Q112.31675 124.574 112.31675 128.27V141.03H107.30075V116.786H112.31675V120.306Q113.41675 118.458 115.24275 117.424Q117.06875 116.39 119.57674999999999 116.39Z M124.41675 110.362Q124.41675 108.998 125.34074999999999 108.07400000000001Q126.26474999999999 107.15 127.62875 107.15Q128.94875 107.15 129.87275 108.07400000000001Q130.79675 108.998 130.79675 110.362Q130.79675 111.726 129.87275 112.65Q128.94875 113.574 127.62875 113.574Q126.26474999999999 113.574 125.34074999999999 112.65Q124.41675 111.726 124.41675 110.362ZM130.09275 116.786V141.03H125.07674999999999V116.786Z M147.73674999999997 120.878H143.24874999999997V141.03H138.18874999999997V120.878H135.32874999999999V116.786H138.18874999999997V115.07000000000001Q138.18874999999997 110.89 140.41074999999998 108.976Q142.63275 107.06200000000001 147.38474999999997 107.06200000000001V111.242Q145.09675 111.242 144.17274999999998 112.1Q143.24874999999997 112.958 143.24874999999997 115.07000000000001V116.786H147.73674999999997Z M174.88474999999997 116.786 160.01274999999998 152.426H154.82074999999998L159.74874999999997 140.63400000000001L150.20074999999997 116.786H155.78874999999996L162.60875 135.266L169.69274999999996 116.786Z" fill="#22282E"/>
  <path d="M6.6455 158.5575H3.7575000000000003L3.2255000000000003 160.03H2.3135L4.7075 153.44650000000001H5.705L8.089500000000001 160.03H7.1775ZM6.3985 157.8545 5.201499999999999 154.5105 4.0045 157.8545Z M13.988999999999999 153.4085V160.03H13.1245V153.4085Z M29.891999999999996 158.5575H27.003999999999998L26.471999999999998 160.03H25.56L27.953999999999997 153.44650000000001H28.951499999999996L31.336 160.03H30.424ZM29.644999999999996 157.8545 28.447999999999997 154.5105 27.250999999999998 157.8545Z M37.216499999999996 153.4085V157.598Q37.216499999999996 158.4815 37.64874999999999 158.909Q38.080999999999996 159.3365 38.8505 159.3365Q39.6105 159.3365 40.04275 158.909Q40.474999999999994 158.4815 40.474999999999994 157.598V153.4085H41.3395V157.5885Q41.3395 158.415 41.007 158.98025Q40.674499999999995 159.5455 40.109249999999996 159.821Q39.544 160.0965 38.841 160.0965Q38.138 160.0965 37.57275 159.821Q37.0075 159.5455 36.67975 158.98025Q36.352 158.415 36.352 157.5885V153.4085Z M50.849000000000004 153.4085V154.1115H49.044000000000004V160.03H48.179500000000004V154.1115H46.365V153.4085Z M55.58 156.7145Q55.58 155.7455 56.02175 154.97125Q56.4635 154.197 57.2235 153.76475Q57.9835 153.3325 58.905 153.3325Q59.836 153.3325 60.596000000000004 153.76475Q61.356 154.197 61.793000000000006 154.9665Q62.230000000000004 155.736 62.230000000000004 156.7145Q62.230000000000004 157.693 61.793000000000006 158.4625Q61.356 159.232 60.596000000000004 159.66424999999998Q59.836 160.0965 58.905 160.0965Q57.9835 160.0965 57.2235 159.66424999999998Q56.4635 159.232 56.02175 158.45775Q55.58 157.6835 55.58 156.7145ZM61.3465 156.7145Q61.3465 155.9165 61.02825 155.32275Q60.71 154.729 60.159000000000006 154.406Q59.608000000000004 154.083 58.905 154.083Q58.202 154.083 57.650999999999996 154.406Q57.1 154.729 56.78175 155.32275Q56.4635 155.9165 56.4635 156.7145Q56.4635 157.50300000000001 56.78175 158.1015Q57.1 158.7 57.65575 159.023Q58.2115 159.346 58.905 159.346Q59.5985 159.346 60.154250000000005 159.023Q60.71 158.7 61.02825 158.1015Q61.3465 157.50300000000001 61.3465 156.7145Z M74.0765 153.456V160.03H73.212V155.12800000000001L71.027 160.03H70.419L68.2245 155.1185V160.03H67.36V153.456H68.291L70.723 158.89000000000001L73.155 153.456Z M83.4435 158.5575H80.5555L80.0235 160.03H79.1115L81.5055 153.44650000000001H82.503L84.8875 160.03H83.9755ZM83.1965 157.8545 81.9995 154.5105 80.80250000000001 157.8545Z M93.998 153.4085V154.1115H92.193V160.03H91.3285V154.1115H89.514V153.4085Z M99.91650000000001 153.4085V160.03H99.052V153.4085Z M105.05600000000001 156.7145Q105.05600000000001 155.7455 105.49775000000001 154.97125Q105.93950000000001 154.197 106.6995 153.76475Q107.4595 153.3325 108.38100000000001 153.3325Q109.31200000000001 153.3325 110.072 153.76475Q110.83200000000001 154.197 111.269 154.9665Q111.706 155.736 111.706 156.7145Q111.706 157.693 111.269 158.4625Q110.83200000000001 159.232 110.072 159.66424999999998Q109.31200000000001 160.0965 108.38100000000001 160.0965Q107.4595 160.0965 106.6995 159.66424999999998Q105.93950000000001 159.232 105.49775000000001 158.45775Q105.05600000000001 157.6835 105.05600000000001 156.7145ZM110.8225 156.7145Q110.8225 155.9165 110.50425000000001 155.32275Q110.186 154.729 109.635 154.406Q109.084 154.083 108.38100000000001 154.083Q107.67800000000001 154.083 107.12700000000001 154.406Q106.57600000000001 154.729 106.25775000000002 155.32275Q105.93950000000001 155.9165 105.93950000000001 156.7145Q105.93950000000001 157.50300000000001 106.25775000000002 158.1015Q106.57600000000001 158.7 107.13175000000001 159.023Q107.68750000000001 159.346 108.38100000000001 159.346Q109.0745 159.346 109.63025 159.023Q110.186 158.7 110.50425000000001 158.1015Q110.8225 157.50300000000001 110.8225 156.7145Z M122.042 160.03H121.1775L117.7005 154.7575V160.03H116.836V153.399H117.7005L121.1775 158.662V153.399H122.042Z M137.945 158.5575H135.057L134.525 160.03H133.613L136.007 153.44650000000001H137.0045L139.38899999999998 160.03H138.477ZM137.698 157.8545 136.501 154.5105 135.304 157.8545Z M149.44 155.32750000000001Q149.1645 154.748 148.642 154.42975Q148.1195 154.1115 147.426 154.1115Q146.7325 154.1115 146.17675 154.42975Q145.621 154.748 145.30275 155.34175Q144.9845 155.9355 144.9845 156.7145Q144.9845 157.4935 145.30275 158.0825Q145.621 158.6715 146.17675 158.98975000000002Q146.7325 159.308 147.426 159.308Q148.39499999999998 159.308 149.022 158.7285Q149.649 158.149 149.7535 157.161H147.11249999999998V156.458H150.67499999999998V157.123Q150.599 157.94 150.16199999999998 158.61925Q149.725 159.2985 149.0125 159.69275Q148.29999999999998 160.087 147.426 160.087Q146.5045 160.087 145.74450000000002 159.65474999999998Q144.9845 159.2225 144.54275 158.453Q144.101 157.6835 144.101 156.7145Q144.101 155.7455 144.54275 154.97125Q144.9845 154.197 145.74450000000002 153.76475Q146.5045 153.3325 147.426 153.3325Q148.4805 153.3325 149.29275 153.85500000000002Q150.105 154.3775 150.47549999999998 155.32750000000001Z M156.6695 154.1115V156.325H159.08249999999998V157.0375H156.6695V159.3175H159.3675V160.03H155.805V153.399H159.3675V154.1115Z M169.87449999999998 160.03H169.01L165.533 154.7575V160.03H164.6685V153.399H165.533L169.01 158.662V153.399H169.87449999999998Z M178.31999999999996 153.323Q179.403 153.323 180.21049999999997 153.84550000000002Q181.01799999999997 154.368 181.38849999999996 155.32750000000001H180.35299999999998Q180.0775 154.729 179.55974999999998 154.406Q179.04199999999997 154.083 178.31999999999996 154.083Q177.62649999999996 154.083 177.07549999999998 154.406Q176.5245 154.729 176.21099999999998 155.32275Q175.89749999999998 155.9165 175.89749999999998 156.7145Q175.89749999999998 157.50300000000001 176.21099999999998 158.09675000000001Q176.5245 158.69050000000001 177.07549999999998 159.01350000000002Q177.62649999999996 159.3365 178.31999999999996 159.3365Q179.04199999999997 159.3365 179.55974999999998 159.01825Q180.0775 158.7 180.35299999999998 158.1015H181.38849999999996Q181.01799999999997 159.0515 180.21049999999997 159.56925Q179.403 160.087 178.31999999999996 160.087Q177.39849999999998 160.087 176.64324999999997 159.65474999999998Q175.88799999999998 159.2225 175.45099999999996 158.453Q175.01399999999998 157.6835 175.01399999999998 156.7145Q175.01399999999998 155.7455 175.45099999999996 154.97125Q175.88799999999998 154.197 176.64324999999997 153.76Q177.39849999999998 153.323 178.31999999999996 153.323Z M191.297 153.4085 189.1405 157.5315V160.03H188.27599999999998V157.5315L186.10999999999999 153.4085H187.06949999999998L188.7035 156.762L190.33749999999998 153.4085Z" fill="#7F9E92"/>
</g>
</svg>
